<svg id="Icons" style="enable-background:new 0 0 32 32" version="1.1" viewBox="0 0 32 32" xml:space="preserve"
	xmlns="http://www.w3.org/2000/svg">
	<style>
		.st1 {
			fill: #d3a853;
			stroke: #d3a853;
			stroke-width: 2;
			stroke-linecap: round;
			stroke-linejoin: round;
			stroke-miterlimit: 10
		}
	</style>
	<ellipse class="st1" cx="23.4" cy="14.9" rx="2.9" ry="4.7" transform="rotate(-45.001 23.427 14.945)" />
	<path class="st1" d="M4 3h4.2C11.4 3 14 5.6 14 8.8V22c0 1.1.9 2 2 2h0c1.1 0 2-.9 2-2v-3.8c0-1.4.5-2.9 1.3-4l.2-.3" />
	<path class="st1"
		d="m5 3 1.4 2.1c.4.6 1 .9 1.6.9h0c1.1 0 2 .9 2 2v13.8c0 4 3.2 7.2 7.2 7.2h0c3.7 0 6.8-3 6.8-6.8v0c0-1.2.3-2.4.9-3.4M15 11h-2M15 14h-2M15 17h-2M15 20h-2" />
</svg>